0
SECTION
2
HEADER
9
$INSUNITS
70
4
9
$ACADVER
1
AC1014
9
$HANDSEED
5
FFFF
0
ENDSEC
0
SECTION
2
TABLES
0
TABLE
2
VPORT
5
8
100
AcDbSymbolTable
0
ENDTAB
0
TABLE
2
LTYPE
5
5
100
AcDbSymbolTable
0
LTYPE
5
14
100
AcDbSymbolTableRecord
100
AcDbLinetypeTableRecord
2
BYBLOCK
70
0
0
LTYPE
5
15
100
AcDbSymbolTableRecord
100
AcDbLinetypeTableRecord
2
BYLAYER
70
0
0
LTYPE
5
16
100
AcDbSymbolTableRecord
100
AcDbLinetypeTableRecord
2
DASHED
70
0
3
Dashed __ __ __ __ __ __ __ __ __ __ __ __ __ _
72
65
73
2
40
0.75
49
0.5
74
0
49
-0.25
74
0
0
ENDTAB
0
TABLE
2
LAYER
5
2
100
AcDbSymbolTable
70
2
0
LAYER
5
50
100
AcDbSymbolTableRecord
100
AcDbLayerTableRecord
2
0
70
0
62
7
6
CONTINUOUS
0
ENDTAB
0
TABLE
2
STYLE
5
3
100
AcDbSymbolTable
70
1
0
STYLE
5
11
100
AcDbSymbolTableRecord
100
AcDbTextStyleTableRecord
2
STANDARD
70
0
0
ENDTAB
0
TABLE
2
VIEW
5
6
100
AcDbSymbolTable
70
0
0
ENDTAB
0
TABLE
2
UCS
5
7
100
AcDbSymbolTable
70
0
0
ENDTAB
0
TABLE
2
APPID
5
9
100
AcDbSymbolTable
70
2
0
APPID
5
12
100
AcDbSymbolTableRecord
100
AcDbRegAppTableRecord
2
ACAD
70
0
0
ENDTAB
0
TABLE
2
DIMSTYLE
5
A
100
AcDbSymbolTable
70
1
0
ENDTAB
0
TABLE
2
BLOCK_RECORD
5
1
100
AcDbSymbolTable
70
1
0
BLOCK_RECORD
5
1F
100
AcDbSymbolTableRecord
100
AcDbBlockTableRecord
2
*MODEL_SPACE
0
BLOCK_RECORD
5
1B
100
AcDbSymbolTableRecord
100
AcDbBlockTableRecord
2
*PAPER_SPACE
0
ENDTAB
0
ENDSEC
0
SECTION
2
BLOCKS
0
BLOCK
5
20
100
AcDbEntity
100
AcDbBlockBegin
2
*MODEL_SPACE
0
ENDBLK
5
21
100
AcDbEntity
100
AcDbBlockEnd
0
BLOCK
5
1C
100
AcDbEntity
100
AcDbBlockBegin
2
*PAPER_SPACE
0
ENDBLK
5
1D
100
AcDbEntity
100
AcDbBlockEnd
0
ENDSEC
0
SECTION
2
ENTITIES
0
POINT
5
100
100
AcDbEntity
8
0
100
AcDbPoint
10
-14.764470948234923
20
-57.500000089392472
30
0
0
POINT
5
101
100
AcDbEntity
8
0
100
AcDbPoint
10
-14.764470948234841
20
-39.500000089392458
30
0
0
POINT
5
102
100
AcDbEntity
8
0
100
AcDbPoint
10
124.73552905176517
20
-39.500000089392444
30
0
0
POINT
5
103
100
AcDbEntity
8
0
100
AcDbPoint
10
124.73552905176517
20
-57.500000089392486
30
0
0
POINT
5
104
100
AcDbEntity
8
0
100
AcDbPoint
10
46.930529051765163
20
-147.10000008940696
30
0
0
POINT
5
105
100
AcDbEntity
8
0
100
AcDbPoint
10
63.040529051765162
20
-147.10000008940696
30
0
0
CIRCLE
5
106
100
AcDbEntity
8
0
100
AcDbCircle
10
-14.764470948234841
20
-39.500000089392458
30
0
40
1.0000000000000009
210
0
220
0
230
1
0
CIRCLE
5
107
100
AcDbEntity
8
0
100
AcDbCircle
10
-14.764470948234923
20
-57.500000089392472
30
0
40
1.0000000000000009
210
0
220
0
230
1
0
CIRCLE
5
108
100
AcDbEntity
8
0
100
AcDbCircle
10
124.73552905176517
20
-57.500000089392486
30
0
40
1.000000000000004
210
0
220
0
230
1
0
CIRCLE
5
109
100
AcDbEntity
8
0
100
AcDbCircle
10
124.73552905176517
20
-39.500000089392444
30
0
40
0.99999999999999256
210
0
220
0
230
1
0
CIRCLE
5
110
100
AcDbEntity
8
0
100
AcDbCircle
10
63.040529051765162
20
-147.10000008940696
30
0
40
1.5000000000000053
210
0
220
0
230
1
0
CIRCLE
5
111
100
AcDbEntity
8
0
100
AcDbCircle
10
46.930529051765163
20
-147.10000008940696
30
0
40
1.499999999999998
210
0
220
0
230
1
0
LWPOLYLINE
5
112
100
AcDbEntity
8
0
100
AcDbPolyline
90
14
70
1
43
0.0
10
130.00000193715096
20
-36.000000536441803
10
-20.000000298023224
20
-36.000000536441803
10
-20.000000298023224
20
-61.000000908970833
10
-4.9999989569187164
20
-61.000000908970833
10
-4.9999989569187164
20
-96.000000908970833
10
10.000001043081284
20
-96.000000908970833
10
40.000001043081284
20
-141.00000090897083
10
40.000001043081284
20
-156.00000232458115
10
70.000001043081284
20
-156.00000232458115
10
70.000001043081284
20
-141.00000090897083
10
100.00000104308128
20
-96.000000908970833
10
115.00000104308128
20
-96.000000908970833
10
115.00000104308128
20
-61.000000908970833
10
130.00000193715096
20
-61.000000908970833
0
CIRCLE
5
113
100
AcDbEntity
8
0
100
AcDbCircle
10
59.000001043081284
20
-131.00000195205212
30
0
40
1.4999999999999971
210
0
220
0
230
1
0
CIRCLE
5
114
100
AcDbEntity
8
0
100
AcDbCircle
10
51.000001043081291
20
-131.00000195205212
30
0
40
1.4999999999999951
210
0
220
0
230
1
0
CIRCLE
5
115
100
AcDbEntity
8
0
100
AcDbCircle
10
29.400001937150961
20
-58.500000536441803
30
0
40
1.899999999999997
210
0
220
0
230
1
0
CIRCLE
5
116
100
AcDbEntity
8
0
100
AcDbCircle
10
80.600001937150964
20
-58.500000536441803
30
0
40
1.8999999999999992
210
0
220
0
230
1
0
CIRCLE
5
117
100
AcDbEntity
8
0
100
AcDbCircle
10
80.600001937150964
20
-38.500000536441803
30
0
40
1.9000000000000015
210
0
220
0
230
1
0
CIRCLE
5
118
100
AcDbEntity
8
0
100
AcDbCircle
10
29.400001937150961
20
-38.500000536441803
30
0
40
1.8999999999999984
210
0
220
0
230
1
0
ENDSEC
0
SECTION
2
OBJECTS
0
DICTIONARY
5
C
100
AcDbDictionary
3
ACAD_GROUP
350
D
3
ACAD_MLINESTYLE
350
17
0
DICTIONARY
5
D
100
AcDbDictionary
0
DICTIONARY
5
1A
330
C
100
AcDbDictionary
0
DICTIONARY
5
17
100
AcDbDictionary
0
ENDSEC
0
EOF
